<?xml version="1.0" standalone="no"?>
<svg xmlns:xlink="http://www.w3.org/1999/xlink" id="wave" style="transform:rotate(180deg); transition: 0.3s" viewBox="0 0 1440 100" version="1.1" xmlns="http://www.w3.org/2000/svg"><defs><linearGradient id="sw-gradient-0" x1="0" x2="0" y1="1" y2="0"><stop stop-color="rgba(255, 249, 234, 1)" offset="0%"/><stop stop-color="rgba(255, 249, 234, 1)" offset="100%"/></linearGradient></defs><path style="transform:translate(0, 0px); opacity:1" fill="url(#sw-gradient-0)" d="M0,80L26.7,71.7C53.3,63,107,47,160,46.7C213.3,47,267,63,320,73.3C373.3,83,427,87,480,88.3C533.3,90,587,90,640,88.3C693.3,87,747,83,800,80C853.3,77,907,73,960,63.3C1013.3,53,1067,37,1120,25C1173.3,13,1227,7,1280,13.3C1333.3,20,1387,40,1440,50C1493.3,60,1547,60,1600,63.3C1653.3,67,1707,73,1760,70C1813.3,67,1867,53,1920,46.7C1973.3,40,2027,40,2080,48.3C2133.3,57,2187,73,2240,68.3C2293.3,63,2347,37,2400,36.7C2453.3,37,2507,63,2560,61.7C2613.3,60,2667,30,2720,23.3C2773.3,17,2827,33,2880,36.7C2933.3,40,2987,30,3040,23.3C3093.3,17,3147,13,3200,13.3C3253.3,13,3307,17,3360,25C3413.3,33,3467,47,3520,46.7C3573.3,47,3627,33,3680,28.3C3733.3,23,3787,27,3813,28.3L3840,30L3840,100L3813.3,100C3786.7,100,3733,100,3680,100C3626.7,100,3573,100,3520,100C3466.7,100,3413,100,3360,100C3306.7,100,3253,100,3200,100C3146.7,100,3093,100,3040,100C2986.7,100,2933,100,2880,100C2826.7,100,2773,100,2720,100C2666.7,100,2613,100,2560,100C2506.7,100,2453,100,2400,100C2346.7,100,2293,100,2240,100C2186.7,100,2133,100,2080,100C2026.7,100,1973,100,1920,100C1866.7,100,1813,100,1760,100C1706.7,100,1653,100,1600,100C1546.7,100,1493,100,1440,100C1386.7,100,1333,100,1280,100C1226.7,100,1173,100,1120,100C1066.7,100,1013,100,960,100C906.7,100,853,100,800,100C746.7,100,693,100,640,100C586.7,100,533,100,480,100C426.7,100,373,100,320,100C266.7,100,213,100,160,100C106.7,100,53,100,27,100L0,100Z"/></svg>